<svg width="59" height="51" viewBox="0 0 59 51" fill="none" xmlns="http://www.w3.org/2000/svg">
<rect width="59" height="51" rx="5" fill="#11A2E0"/>
<path d="M5.69318 3.72727H6.74432L9.21591 9.7642H9.30114L11.7727 3.72727H12.8239V11H12V5.47443H11.929L9.65625 11H8.8608L6.58807 5.47443H6.51705V11H5.69318V3.72727ZM16.0811 11.1278C15.7355 11.1278 15.4218 11.0627 15.1401 10.9325C14.8584 10.8 14.6346 10.6094 14.4689 10.3608C14.3032 10.1098 14.2203 9.80682 14.2203 9.4517C14.2203 9.1392 14.2819 8.88589 14.405 8.69176C14.5281 8.49527 14.6926 8.34138 14.8986 8.23011C15.1046 8.11884 15.3319 8.03598 15.5804 7.98153C15.8314 7.92472 16.0835 7.87973 16.3368 7.84659C16.6683 7.80398 16.937 7.77202 17.1429 7.75071C17.3513 7.72704 17.5028 7.68797 17.5975 7.63352C17.6945 7.57907 17.7431 7.48437 17.7431 7.34943V7.32102C17.7431 6.97064 17.6472 6.69839 17.4554 6.50426C17.266 6.31013 16.9784 6.21307 16.5925 6.21307C16.1924 6.21307 15.8787 6.30066 15.6515 6.47585C15.4242 6.65104 15.2644 6.83807 15.1721 7.03693L14.3766 6.75284C14.5186 6.4214 14.708 6.16335 14.9448 5.97869C15.1839 5.79167 15.4443 5.66146 15.726 5.58807C16.0101 5.51231 16.2895 5.47443 16.5641 5.47443C16.7393 5.47443 16.9405 5.49574 17.1678 5.53835C17.3974 5.5786 17.6188 5.66264 17.8319 5.79048C18.0473 5.91832 18.226 6.11127 18.3681 6.36932C18.5101 6.62737 18.5811 6.97301 18.5811 7.40625V11H17.7431V10.2614H17.7005C17.6436 10.3797 17.5489 10.5064 17.4164 10.6413C17.2838 10.7763 17.1074 10.8911 16.8873 10.9858C16.6671 11.0805 16.3984 11.1278 16.0811 11.1278ZM16.209 10.375C16.5404 10.375 16.8198 10.3099 17.0471 10.1797C17.2767 10.0495 17.4495 9.88139 17.5655 9.67543C17.6839 9.46946 17.7431 9.25284 17.7431 9.02557V8.25852C17.7076 8.30114 17.6294 8.3402 17.5087 8.37571C17.3903 8.40885 17.253 8.43845 17.0968 8.46449C16.9429 8.48816 16.7926 8.50947 16.6458 8.52841C16.5014 8.54498 16.3842 8.55919 16.2942 8.57102C16.0764 8.59943 15.8728 8.6456 15.6834 8.70952C15.4964 8.77107 15.3449 8.86458 15.2289 8.99006C15.1152 9.11316 15.0584 9.28125 15.0584 9.49432C15.0584 9.78551 15.1661 10.0057 15.3816 10.1548C15.5994 10.3016 15.8752 10.375 16.209 10.375ZM20.1108 13.0455V5.54545H20.9205V6.41193H21.0199C21.0814 6.31723 21.1667 6.1965 21.2756 6.04972C21.3868 5.90057 21.5455 5.76799 21.7514 5.65199C21.9598 5.53362 22.2415 5.47443 22.5966 5.47443C23.0559 5.47443 23.4607 5.58925 23.8111 5.81889C24.1615 6.04853 24.4349 6.37405 24.6314 6.79545C24.8279 7.21686 24.9261 7.71402 24.9261 8.28693C24.9261 8.86458 24.8279 9.36529 24.6314 9.78906C24.4349 10.2105 24.1626 10.5372 23.8146 10.7692C23.4666 10.9988 23.0653 11.1136 22.6108 11.1136C22.2604 11.1136 21.9799 11.0556 21.7692 10.9396C21.5585 10.8213 21.3963 10.6875 21.2827 10.5384C21.169 10.3868 21.0814 10.2614 21.0199 10.1619H20.9489V13.0455H20.1108ZM20.9347 8.27273C20.9347 8.68466 20.995 9.04806 21.1158 9.36293C21.2365 9.67543 21.4129 9.92045 21.6449 10.098C21.8769 10.2732 22.161 10.3608 22.4972 10.3608C22.8475 10.3608 23.1399 10.2685 23.3743 10.0838C23.611 9.89678 23.7886 9.64583 23.907 9.33097C24.0277 9.01373 24.0881 8.66098 24.0881 8.27273C24.0881 7.8892 24.0289 7.54356 23.9105 7.2358C23.7945 6.92566 23.6181 6.68063 23.3814 6.50071C23.147 6.31842 22.8523 6.22727 22.4972 6.22727C22.1563 6.22727 21.8698 6.31368 21.6378 6.48651C21.4058 6.65696 21.2306 6.89607 21.1122 7.20384C20.9938 7.50923 20.9347 7.86553 20.9347 8.27273ZM26.2045 11V5.54545H27.0426V7.91761H27.5966L29.5568 5.54545H30.6364L28.4347 8.1733L30.6648 11H29.5852L27.7955 8.69886H27.0426V11H26.2045ZM33.5669 11.1136C33.0745 11.1136 32.6425 10.9964 32.2708 10.7621C31.9015 10.5277 31.6126 10.1998 31.4043 9.77841C31.1983 9.35701 31.0953 8.86458 31.0953 8.30114C31.0953 7.73295 31.1983 7.23698 31.4043 6.81321C31.6126 6.38944 31.9015 6.06037 32.2708 5.82599C32.6425 5.59162 33.0745 5.47443 33.5669 5.47443C34.0594 5.47443 34.4902 5.59162 34.8596 5.82599C35.2312 6.06037 35.5201 6.38944 35.726 6.81321C35.9344 7.23698 36.0385 7.73295 36.0385 8.30114C36.0385 8.86458 35.9344 9.35701 35.726 9.77841C35.5201 10.1998 35.2312 10.5277 34.8596 10.7621C34.4902 10.9964 34.0594 11.1136 33.5669 11.1136ZM33.5669 10.3608C33.941 10.3608 34.2488 10.2649 34.4902 10.0732C34.7317 9.88139 34.9105 9.62926 35.0265 9.31676C35.1425 9.00426 35.2005 8.66572 35.2005 8.30114C35.2005 7.93655 35.1425 7.59683 35.0265 7.28196C34.9105 6.96709 34.7317 6.71259 34.4902 6.51847C34.2488 6.32434 33.941 6.22727 33.5669 6.22727C33.1929 6.22727 32.8851 6.32434 32.6436 6.51847C32.4022 6.71259 32.2234 6.96709 32.1074 7.28196C31.9914 7.59683 31.9334 7.93655 31.9334 8.30114C31.9334 8.66572 31.9914 9.00426 32.1074 9.31676C32.2234 9.62926 32.4022 9.88139 32.6436 10.0732C32.8851 10.2649 33.1929 10.3608 33.5669 10.3608ZM37.3178 11V5.54545H39.5479C40.1351 5.54545 40.6014 5.67803 40.9471 5.94318C41.2927 6.20833 41.4656 6.55871 41.4656 6.99432C41.4656 7.32576 41.3673 7.58262 41.1708 7.76491C40.9743 7.94484 40.7222 8.06676 40.4144 8.13068C40.6156 8.15909 40.811 8.23011 41.0004 8.34375C41.1921 8.45739 41.3507 8.61364 41.4762 8.8125C41.6017 9.009 41.6644 9.25047 41.6644 9.53693C41.6644 9.81629 41.5934 10.0661 41.4513 10.2862C41.3093 10.5064 41.1057 10.6804 40.8406 10.8082C40.5754 10.9361 40.2582 11 39.8888 11H37.3178ZM38.1133 10.233H39.8888C40.1777 10.233 40.4038 10.1643 40.5671 10.027C40.7305 9.88968 40.8121 9.70265 40.8121 9.46591C40.8121 9.18419 40.7305 8.96283 40.5671 8.80185C40.4038 8.63849 40.1777 8.55682 39.8888 8.55682H38.1133V10.233ZM38.1133 7.83239H39.5479C39.7728 7.83239 39.9658 7.80161 40.1268 7.74006C40.2878 7.67614 40.4109 7.58617 40.4961 7.47017C40.5837 7.3518 40.6275 7.21212 40.6275 7.05114C40.6275 6.8215 40.5316 6.64157 40.3398 6.51136C40.1481 6.37879 39.8841 6.3125 39.5479 6.3125H38.1133V7.83239ZM46.1575 11H45.2342L47.9047 3.72727H48.8137L51.4842 11H50.5609L48.3876 4.87784H48.3308L46.1575 11ZM46.4984 8.15909H50.22V8.94034H46.4984V8.15909ZM53.1142 11.0568C52.939 11.0568 52.7886 10.9941 52.6632 10.8686C52.5377 10.7431 52.475 10.5928 52.475 10.4176C52.475 10.2424 52.5377 10.0921 52.6632 9.96662C52.7886 9.84115 52.939 9.77841 53.1142 9.77841C53.2894 9.77841 53.4397 9.84115 53.5652 9.96662C53.6906 10.0921 53.7534 10.2424 53.7534 10.4176C53.7534 10.5336 53.7238 10.6402 53.6646 10.7372C53.6078 10.8343 53.5308 10.9124 53.4338 10.9716C53.3391 11.0284 53.2325 11.0568 53.1142 11.0568ZM5.21023 23.0994C4.74148 23.0994 4.32363 23.0189 3.95668 22.858C3.59209 22.697 3.30208 22.4732 3.08665 22.1868C2.87358 21.898 2.75758 21.563 2.73864 21.1818H3.63352C3.65246 21.4162 3.73295 21.6186 3.875 21.7891C4.01705 21.9571 4.20289 22.0874 4.43253 22.1797C4.66217 22.272 4.91667 22.3182 5.19602 22.3182C5.50852 22.3182 5.78551 22.2637 6.02699 22.1548C6.26847 22.0459 6.45786 21.8944 6.59517 21.7003C6.73248 21.5062 6.80114 21.2812 6.80114 21.0256C6.80114 20.758 6.73485 20.5225 6.60227 20.3189C6.4697 20.1129 6.27557 19.9519 6.01989 19.8359C5.7642 19.7199 5.4517 19.6619 5.08239 19.6619H4.5V18.8807H5.08239C5.37121 18.8807 5.62453 18.8286 5.84233 18.7244C6.0625 18.6203 6.23414 18.4735 6.35724 18.2841C6.48272 18.0947 6.54545 17.8722 6.54545 17.6165C6.54545 17.3703 6.491 17.156 6.3821 16.9737C6.2732 16.7914 6.11932 16.6494 5.92045 16.5476C5.72396 16.4458 5.49195 16.3949 5.22443 16.3949C4.97348 16.3949 4.73674 16.4411 4.5142 16.5334C4.29403 16.6233 4.11411 16.7547 3.97443 16.9276C3.83475 17.098 3.759 17.304 3.74716 17.5455H2.89489C2.90909 17.1643 3.02391 16.8305 3.23935 16.544C3.45478 16.2552 3.73651 16.0303 4.08452 15.8693C4.4349 15.7083 4.8196 15.6278 5.23864 15.6278C5.68845 15.6278 6.07434 15.719 6.39631 15.9013C6.71828 16.0812 6.96567 16.3191 7.13849 16.6151C7.31132 16.911 7.39773 17.2306 7.39773 17.5739C7.39773 17.9834 7.29001 18.3326 7.07457 18.6214C6.86151 18.9103 6.5715 19.1103 6.20455 19.2216V19.2784C6.66383 19.3542 7.02249 19.5495 7.28054 19.8643C7.53859 20.1768 7.66761 20.5639 7.66761 21.0256C7.66761 21.4209 7.5599 21.776 7.34446 22.0909C7.13139 22.4034 6.8402 22.6496 6.47088 22.8295C6.10156 23.0095 5.68134 23.0994 5.21023 23.0994ZM10.7393 23.1278C10.3937 23.1278 10.08 23.0627 9.7983 22.9325C9.51657 22.8 9.29285 22.6094 9.12713 22.3608C8.96141 22.1098 8.87855 21.8068 8.87855 21.4517C8.87855 21.1392 8.9401 20.8859 9.06321 20.6918C9.18632 20.4953 9.35085 20.3414 9.55682 20.2301C9.76278 20.1188 9.99006 20.036 10.2386 19.9815C10.4896 19.9247 10.7417 19.8797 10.995 19.8466C11.3265 19.804 11.5952 19.772 11.8011 19.7507C12.0095 19.727 12.161 19.688 12.2557 19.6335C12.3527 19.5791 12.4013 19.4844 12.4013 19.3494V19.321C12.4013 18.9706 12.3054 18.6984 12.1136 18.5043C11.9242 18.3101 11.6366 18.2131 11.2507 18.2131C10.8506 18.2131 10.5369 18.3007 10.3097 18.4759C10.0824 18.651 9.92259 18.8381 9.83026 19.0369L9.0348 18.7528C9.17685 18.4214 9.36624 18.1634 9.60298 17.9787C9.84209 17.7917 10.1025 17.6615 10.3842 17.5881C10.6683 17.5123 10.9477 17.4744 11.2223 17.4744C11.3975 17.4744 11.5987 17.4957 11.826 17.5384C12.0556 17.5786 12.277 17.6626 12.4901 17.7905C12.7055 17.9183 12.8842 18.1113 13.0263 18.3693C13.1683 18.6274 13.2393 18.973 13.2393 19.4062V23H12.4013V22.2614H12.3587C12.3018 22.3797 12.2071 22.5064 12.0746 22.6413C11.942 22.7763 11.7656 22.8911 11.5455 22.9858C11.3253 23.0805 11.0566 23.1278 10.7393 23.1278ZM10.8672 22.375C11.1986 22.375 11.478 22.3099 11.7053 22.1797C11.9349 22.0495 12.1077 21.8814 12.2237 21.6754C12.3421 21.4695 12.4013 21.2528 12.4013 21.0256V20.2585C12.3658 20.3011 12.2876 20.3402 12.1669 20.3757C12.0485 20.4089 11.9112 20.4384 11.755 20.4645C11.6011 20.4882 11.4508 20.5095 11.304 20.5284C11.1596 20.545 11.0424 20.5592 10.9524 20.571C10.7346 20.5994 10.531 20.6456 10.3416 20.7095C10.1546 20.7711 10.0031 20.8646 9.88707 20.9901C9.77344 21.1132 9.71662 21.2812 9.71662 21.4943C9.71662 21.7855 9.82434 22.0057 10.0398 22.1548C10.2576 22.3016 10.5334 22.375 10.8672 22.375ZM15.394 17.5455L16.7008 19.7756L18.0076 17.5455H18.9735L17.2122 20.2727L18.9735 23H18.0076L16.7008 20.8835L15.394 23H14.4281L16.161 20.2727L14.4281 17.5455H15.394ZM21.7745 23.1278C21.4289 23.1278 21.1152 23.0627 20.8335 22.9325C20.5517 22.8 20.328 22.6094 20.1623 22.3608C19.9966 22.1098 19.9137 21.8068 19.9137 21.4517C19.9137 21.1392 19.9753 20.8859 20.0984 20.6918C20.2215 20.4953 20.386 20.3414 20.592 20.2301C20.7979 20.1188 21.0252 20.036 21.2738 19.9815C21.5247 19.9247 21.7769 19.8797 22.0302 19.8466C22.3616 19.804 22.6303 19.772 22.8363 19.7507C23.0446 19.727 23.1961 19.688 23.2908 19.6335C23.3879 19.5791 23.4364 19.4844 23.4364 19.3494V19.321C23.4364 18.9706 23.3406 18.6984 23.1488 18.5043C22.9594 18.3101 22.6718 18.2131 22.2859 18.2131C21.8858 18.2131 21.5721 18.3007 21.3448 18.4759C21.1175 18.651 20.9577 18.8381 20.8654 19.0369L20.07 18.7528C20.212 18.4214 20.4014 18.1634 20.6381 17.9787C20.8772 17.7917 21.1377 17.6615 21.4194 17.5881C21.7035 17.5123 21.9828 17.4744 22.2575 17.4744C22.4326 17.4744 22.6339 17.4957 22.8612 17.5384C23.0908 17.5786 23.3121 17.6626 23.5252 17.7905C23.7406 17.9183 23.9194 18.1113 24.0614 18.3693C24.2035 18.6274 24.2745 18.973 24.2745 19.4062V23H23.4364V22.2614H23.3938C23.337 22.3797 23.2423 22.5064 23.1097 22.6413C22.9772 22.7763 22.8008 22.8911 22.5806 22.9858C22.3604 23.0805 22.0917 23.1278 21.7745 23.1278ZM21.9023 22.375C22.2338 22.375 22.5131 22.3099 22.7404 22.1797C22.9701 22.0495 23.1429 21.8814 23.2589 21.6754C23.3772 21.4695 23.4364 21.2528 23.4364 21.0256V20.2585C23.4009 20.3011 23.3228 20.3402 23.2021 20.3757C23.0837 20.4089 22.9464 20.4384 22.7901 20.4645C22.6362 20.4882 22.4859 20.5095 22.3391 20.5284C22.1947 20.545 22.0775 20.5592 21.9876 20.571C21.7698 20.5994 21.5662 20.6456 21.3768 20.7095C21.1897 20.7711 21.0382 20.8646 20.9222 20.9901C20.8086 21.1132 20.7518 21.2812 20.7518 21.4943C20.7518 21.7855 20.8595 22.0057 21.0749 22.1548C21.2927 22.3016 21.5685 22.375 21.9023 22.375ZM25.8042 25.0455V17.5455H26.6138V18.4119H26.7132C26.7748 18.3172 26.86 18.1965 26.9689 18.0497C27.0802 17.9006 27.2388 17.768 27.4448 17.652C27.6531 17.5336 27.9348 17.4744 28.29 17.4744C28.7492 17.4744 29.1541 17.5893 29.5044 17.8189C29.8548 18.0485 30.1283 18.3741 30.3248 18.7955C30.5212 19.2169 30.6195 19.714 30.6195 20.2869C30.6195 20.8646 30.5212 21.3653 30.3248 21.7891C30.1283 22.2105 29.856 22.5372 29.508 22.7692C29.16 22.9988 28.7587 23.1136 28.3042 23.1136C27.9538 23.1136 27.6732 23.0556 27.4625 22.9396C27.2518 22.8213 27.0897 22.6875 26.976 22.5384C26.8624 22.3868 26.7748 22.2614 26.7132 22.1619H26.6422V25.0455H25.8042ZM26.628 20.2727C26.628 20.6847 26.6884 21.0481 26.8091 21.3629C26.9299 21.6754 27.1062 21.9205 27.3382 22.098C27.5703 22.2732 27.8543 22.3608 28.1905 22.3608C28.5409 22.3608 28.8333 22.2685 29.0676 22.0838C29.3044 21.8968 29.4819 21.6458 29.6003 21.331C29.7211 21.0137 29.7814 20.661 29.7814 20.2727C29.7814 19.8892 29.7222 19.5436 29.6039 19.2358C29.4879 18.9257 29.3115 18.6806 29.0748 18.5007C28.8404 18.3184 28.5456 18.2273 28.1905 18.2273C27.8496 18.2273 27.5632 18.3137 27.3311 18.4865C27.0991 18.657 26.9239 18.8961 26.8056 19.2038C26.6872 19.5092 26.628 19.8655 26.628 20.2727ZM34.1138 23.1136C33.6214 23.1136 33.1893 22.9964 32.8176 22.7621C32.4483 22.5277 32.1595 22.1998 31.9512 21.7784C31.7452 21.357 31.6422 20.8646 31.6422 20.3011C31.6422 19.733 31.7452 19.237 31.9512 18.8132C32.1595 18.3894 32.4483 18.0604 32.8176 17.826C33.1893 17.5916 33.6214 17.4744 34.1138 17.4744C34.6062 17.4744 35.0371 17.5916 35.4064 17.826C35.7781 18.0604 36.0669 18.3894 36.2729 18.8132C36.4812 19.237 36.5854 19.733 36.5854 20.3011C36.5854 20.8646 36.4812 21.357 36.2729 21.7784C36.0669 22.1998 35.7781 22.5277 35.4064 22.7621C35.0371 22.9964 34.6062 23.1136 34.1138 23.1136ZM34.1138 22.3608C34.4879 22.3608 34.7956 22.2649 35.0371 22.0732C35.2786 21.8814 35.4573 21.6293 35.5733 21.3168C35.6893 21.0043 35.7473 20.6657 35.7473 20.3011C35.7473 19.9366 35.6893 19.5968 35.5733 19.282C35.4573 18.9671 35.2786 18.7126 35.0371 18.5185C34.7956 18.3243 34.4879 18.2273 34.1138 18.2273C33.7398 18.2273 33.432 18.3243 33.1905 18.5185C32.949 18.7126 32.7703 18.9671 32.6543 19.282C32.5383 19.5968 32.4803 19.9366 32.4803 20.3011C32.4803 20.6657 32.5383 21.0043 32.6543 21.3168C32.7703 21.6293 32.949 21.8814 33.1905 22.0732C33.432 22.2649 33.7398 22.3608 34.1138 22.3608ZM37.8647 23V17.5455H40.0948C40.6819 17.5455 41.1483 17.678 41.494 17.9432C41.8396 18.2083 42.0124 18.5587 42.0124 18.9943C42.0124 19.3258 41.9142 19.5826 41.7177 19.7649C41.5212 19.9448 41.2691 20.0668 40.9613 20.1307C41.1625 20.1591 41.3578 20.2301 41.5472 20.3438C41.739 20.4574 41.8976 20.6136 42.0231 20.8125C42.1486 21.009 42.2113 21.2505 42.2113 21.5369C42.2113 21.8163 42.1403 22.0661 41.9982 22.2862C41.8562 22.5064 41.6526 22.6804 41.3874 22.8082C41.1223 22.9361 40.805 23 40.4357 23H37.8647ZM38.6602 22.233H40.4357C40.7246 22.233 40.9506 22.1643 41.114 22.027C41.2773 21.8897 41.359 21.7027 41.359 21.4659C41.359 21.1842 41.2773 20.9628 41.114 20.8018C40.9506 20.6385 40.7246 20.5568 40.4357 20.5568H38.6602V22.233ZM38.6602 19.8324H40.0948C40.3197 19.8324 40.5127 19.8016 40.6737 19.7401C40.8346 19.6761 40.9577 19.5862 41.043 19.4702C41.1306 19.3518 41.1744 19.2121 41.1744 19.0511C41.1744 18.8215 41.0785 18.6416 40.8867 18.5114C40.695 18.3788 40.431 18.3125 40.0948 18.3125H38.6602V19.8324ZM46.4061 15.7273H47.4572L49.9288 21.7642H50.014L52.4856 15.7273H53.5368V23H52.7129V17.4744H52.6419L50.3691 23H49.5737L47.301 17.4744H47.2299V23H46.4061V15.7273ZM55.7997 23.0568C55.6245 23.0568 55.4742 22.9941 55.3487 22.8686C55.2232 22.7431 55.1605 22.5928 55.1605 22.4176C55.1605 22.2424 55.2232 22.0921 55.3487 21.9666C55.4742 21.8411 55.6245 21.7784 55.7997 21.7784C55.9749 21.7784 56.1252 21.8411 56.2507 21.9666C56.3762 22.0921 56.4389 22.2424 56.4389 22.4176C56.4389 22.5336 56.4093 22.6402 56.3501 22.7372C56.2933 22.8343 56.2164 22.9124 56.1193 22.9716C56.0246 23.0284 55.9181 23.0568 55.7997 23.0568ZM11.7585 29.5455V30.3267H9.23011V35H8.39205V29.5455H11.7585ZM13.82 33.7642L16.4478 29.5455H17.4137V35H16.5756V30.7812L13.962 35H12.9819V29.5455H13.82V33.7642ZM21.9316 33.8636L23.835 29.5455H24.6305L22.2725 35H21.5907L19.2754 29.5455H20.0566L21.9316 33.8636ZM19.7868 29.5455V35H18.9487V29.5455H19.7868ZM24.0765 35V29.5455H24.9146V35H24.0765ZM30.0993 31.8892V32.6705H27.0879V31.8892H30.0993ZM27.2868 29.5455V35H26.4487V29.5455H27.2868ZM30.7385 29.5455V35H29.9004V29.5455H30.7385ZM33.8741 35.1278C33.5285 35.1278 33.2148 35.0627 32.9331 34.9325C32.6513 34.8 32.4276 34.6094 32.2619 34.3608C32.0962 34.1098 32.0133 33.8068 32.0133 33.4517C32.0133 33.1392 32.0749 32.8859 32.198 32.6918C32.3211 32.4953 32.4856 32.3414 32.6916 32.2301C32.8975 32.1188 33.1248 32.036 33.3734 31.9815C33.6243 31.9247 33.8765 31.8797 34.1298 31.8466C34.4612 31.804 34.7299 31.772 34.9359 31.7507C35.1442 31.727 35.2958 31.688 35.3904 31.6335C35.4875 31.5791 35.536 31.4844 35.536 31.3494V31.321C35.536 30.9706 35.4402 30.6984 35.2484 30.5043C35.059 30.3101 34.7714 30.2131 34.3855 30.2131C33.9854 30.2131 33.6717 30.3007 33.4444 30.4759C33.2172 30.651 33.0574 30.8381 32.965 31.0369L32.1696 30.7528C32.3116 30.4214 32.501 30.1634 32.7377 29.9787C32.9769 29.7917 33.2373 29.6615 33.519 29.5881C33.8031 29.5123 34.0824 29.4744 34.3571 29.4744C34.5323 29.4744 34.7335 29.4957 34.9608 29.5384C35.1904 29.5786 35.4118 29.6626 35.6248 29.7905C35.8403 29.9183 36.019 30.1113 36.161 30.3693C36.3031 30.6274 36.3741 30.973 36.3741 31.4062V35H35.536V34.2614H35.4934C35.4366 34.3797 35.3419 34.5064 35.2093 34.6413C35.0768 34.7763 34.9004 34.8911 34.6802 34.9858C34.46 35.0805 34.1913 35.1278 33.8741 35.1278ZM34.002 34.375C34.3334 34.375 34.6127 34.3099 34.84 34.1797C35.0697 34.0495 35.2425 33.8814 35.3585 33.6754C35.4769 33.4695 35.536 33.2528 35.536 33.0256V32.2585C35.5005 32.3011 35.4224 32.3402 35.3017 32.3757C35.1833 32.4089 35.046 32.4384 34.8897 32.4645C34.7359 32.4882 34.5855 32.5095 34.4387 32.5284C34.2943 32.545 34.1771 32.5592 34.0872 32.571C33.8694 32.5994 33.6658 32.6456 33.4764 32.7095C33.2894 32.7711 33.1378 32.8646 33.0218 32.9901C32.9082 33.1132 32.8514 33.2812 32.8514 33.4943C32.8514 33.7855 32.9591 34.0057 33.1745 34.1548C33.3923 34.3016 33.6681 34.375 34.002 34.375ZM37.5629 33.608H38.4577C38.4767 33.8542 38.5879 34.0412 38.7915 34.169C38.9975 34.2969 39.265 34.3608 39.5941 34.3608C39.9303 34.3608 40.2179 34.2921 40.457 34.1548C40.6961 34.0152 40.8157 33.7902 40.8157 33.4801C40.8157 33.2978 40.7707 33.1392 40.6808 33.0043C40.5908 32.867 40.4641 32.7604 40.3008 32.6847C40.1374 32.6089 39.9445 32.571 39.7219 32.571H38.7844V31.8182H39.7219C40.0558 31.8182 40.302 31.7424 40.4606 31.5909C40.6216 31.4394 40.7021 31.25 40.7021 31.0227C40.7021 30.7789 40.6156 30.5836 40.4428 30.4368C40.27 30.2876 40.025 30.2131 39.7077 30.2131C39.3881 30.2131 39.1218 30.2853 38.9087 30.4297C38.6957 30.5717 38.5832 30.7552 38.5714 30.9801H37.6907C37.7002 30.6866 37.7901 30.4273 37.9606 30.2024C38.131 29.9751 38.363 29.7976 38.6566 29.6697C38.9502 29.5395 39.2863 29.4744 39.6651 29.4744C40.0487 29.4744 40.3813 29.5419 40.663 29.6768C40.9471 29.8094 41.1661 29.9905 41.32 30.2202C41.4762 30.4474 41.5543 30.7055 41.5543 30.9943C41.5543 31.3021 41.4679 31.5507 41.2951 31.7401C41.1223 31.9295 40.9057 32.0644 40.6452 32.1449V32.2017C40.8512 32.2159 41.0299 32.2822 41.1815 32.4006C41.3353 32.5166 41.4549 32.6693 41.5401 32.8587C41.6254 33.0457 41.668 33.2528 41.668 33.4801C41.668 33.8116 41.5792 34.1004 41.4016 34.3466C41.2241 34.5904 40.9802 34.7798 40.6701 34.9148C40.36 35.0473 40.006 35.1136 39.6083 35.1136C39.2224 35.1136 38.8768 35.0509 38.5714 34.9254C38.266 34.7976 38.0233 34.6212 37.8434 34.3963C37.6658 34.169 37.5723 33.9062 37.5629 33.608ZM43.6832 33.7642L46.3111 29.5455H47.277V35H46.4389V30.7812L43.8253 35H42.8452V29.5455H43.6832V33.7642ZM52.0932 35V30.3125H50.6444C50.3176 30.3125 50.0608 30.3883 49.8738 30.5398C49.6867 30.6913 49.5932 30.8996 49.5932 31.1648C49.5932 31.4252 49.6773 31.63 49.8453 31.7791C50.0158 31.9283 50.249 32.0028 50.5449 32.0028H52.3063V32.7841H50.5449C50.1756 32.7841 49.8572 32.719 49.5897 32.5888C49.3221 32.4586 49.1162 32.2727 48.9718 32.0312C48.8274 31.7874 48.7551 31.4986 48.7551 31.1648C48.7551 30.8286 48.8309 30.5398 48.9824 30.2983C49.1339 30.0568 49.3506 29.871 49.6323 29.7408C49.9164 29.6106 50.2537 29.5455 50.6444 29.5455H52.8887V35H52.0932ZM48.4569 35L50.0051 32.2869H50.9142L49.3659 35H48.4569ZM24.9972 39.7273V47H24.1165V40.6506H24.0739L22.2983 41.8295V40.9347L24.1165 39.7273H24.9972ZM29.3615 47.0994C28.9448 47.0994 28.5696 47.0166 28.2358 46.8509C27.902 46.6851 27.6345 46.4579 27.4332 46.169C27.232 45.8802 27.1219 45.5511 27.103 45.1818H27.9553C27.9884 45.5109 28.1375 45.7831 28.4027 45.9986C28.6702 46.2116 28.9898 46.3182 29.3615 46.3182C29.6598 46.3182 29.925 46.2483 30.157 46.1087C30.3913 45.969 30.5748 45.7772 30.7074 45.5334C30.8423 45.2872 30.9098 45.009 30.9098 44.6989C30.9098 44.3816 30.84 44.0987 30.7003 43.8501C30.563 43.5992 30.3736 43.4015 30.1321 43.2571C29.8906 43.1127 29.6148 43.0393 29.3047 43.0369C29.0821 43.0346 28.8537 43.0689 28.6193 43.1399C28.3849 43.2086 28.192 43.2973 28.0405 43.4062L27.2166 43.3068L27.657 39.7273H31.4354V40.5085H28.3956L28.1399 42.6534H28.1825C28.3317 42.535 28.5187 42.4368 28.7436 42.3587C28.9685 42.2805 29.2029 42.2415 29.4467 42.2415C29.8918 42.2415 30.2884 42.348 30.6364 42.5611C30.9867 42.7718 31.2614 43.0606 31.4602 43.4276C31.6615 43.7945 31.7621 44.2135 31.7621 44.6847C31.7621 45.1487 31.6579 45.563 31.4496 45.9276C31.2436 46.2898 30.9595 46.5762 30.5973 46.7869C30.2351 46.9953 29.8232 47.0994 29.3615 47.0994ZM33.4 47L36.6529 40.5653V40.5085H32.9029V39.7273H37.562V40.5511L34.3233 47H33.4Z" fill="white"/>
</svg>
